<svg width="123" height="17" viewBox="0 0 123 17" fill="none" xmlns="http://www.w3.org/2000/svg">
<path d="M13.5547 7.27344C13.5547 7.76823 13.4948 8.25781 13.375 8.74219C13.2604 9.22135 13.0833 9.65625 12.8438 10.0469C12.6042 10.4323 12.3021 10.7422 11.9375 10.9766C11.5781 11.2057 11.151 11.3203 10.6562 11.3203C10.2656 11.3203 9.91927 11.2266 9.61719 11.0391C9.32031 10.8516 9.11198 10.6094 8.99219 10.3125H8.86719C8.64844 10.5781 8.36198 10.8125 8.00781 11.0156C7.65365 11.2188 7.22396 11.3203 6.71875 11.3203C5.76562 11.3203 5.03125 11.0365 4.51562 10.4688C4 9.89583 3.74219 9.14583 3.74219 8.21875C3.74219 7.5 3.89583 6.86719 4.20312 6.32031C4.51042 5.76823 4.94792 5.33594 5.51562 5.02344C6.08333 4.71094 6.7526 4.55469 7.52344 4.55469C8.02865 4.55469 8.54688 4.60156 9.07812 4.69531C9.61458 4.78385 10.0339 4.88021 10.3359 4.98438L10.1797 8.26562C10.1693 8.375 10.1615 8.48438 10.1562 8.59375C10.1562 8.70312 10.1562 8.77344 10.1562 8.80469C10.1562 9.2474 10.2161 9.54167 10.3359 9.6875C10.4609 9.82812 10.599 9.89844 10.75 9.89844C10.9896 9.89844 11.1901 9.77865 11.3516 9.53906C11.513 9.29948 11.6354 8.97917 11.7188 8.57812C11.8021 8.17708 11.8438 7.73698 11.8438 7.25781C11.8438 6.36719 11.6615 5.60938 11.2969 4.98438C10.9375 4.35417 10.4427 3.875 9.8125 3.54688C9.1875 3.21354 8.47656 3.04688 7.67969 3.04688C6.84115 3.04688 6.10156 3.17969 5.46094 3.44531C4.82031 3.71094 4.28125 4.08333 3.84375 4.5625C3.41146 5.04167 3.08333 5.60677 2.85938 6.25781C2.64062 6.90885 2.53125 7.61979 2.53125 8.39062C2.53125 9.34896 2.70312 10.1615 3.04688 10.8281C3.39062 11.4948 3.89583 12 4.5625 12.3438C5.23438 12.6875 6.05469 12.8594 7.02344 12.8594C7.64323 12.8594 8.28646 12.7917 8.95312 12.6562C9.625 12.5156 10.2396 12.3411 10.7969 12.1328V13.6406C10.2865 13.8542 9.71615 14.0234 9.08594 14.1484C8.45573 14.2786 7.78906 14.3438 7.08594 14.3438C5.76302 14.3438 4.63281 14.1094 3.69531 13.6406C2.75781 13.1719 2.03906 12.4974 1.53906 11.6172C1.04427 10.7318 0.796875 9.67188 0.796875 8.4375C0.796875 7.46875 0.955729 6.57031 1.27344 5.74219C1.59635 4.90885 2.05729 4.18229 2.65625 3.5625C3.25521 2.9375 3.97656 2.45052 4.82031 2.10156C5.66927 1.7526 6.61719 1.57812 7.66406 1.57812C8.80469 1.57812 9.81771 1.8099 10.7031 2.27344C11.5938 2.73177 12.2917 3.38542 12.7969 4.23438C13.3021 5.08333 13.5547 6.09635 13.5547 7.27344ZM5.55469 8.25C5.55469 8.83333 5.67448 9.25521 5.91406 9.51562C6.15885 9.77083 6.48698 9.89844 6.89844 9.89844C7.4349 9.89844 7.8125 9.70312 8.03125 9.3125C8.25 8.92188 8.3776 8.41146 8.41406 7.78125L8.51562 6.05469C8.39583 6.02865 8.26042 6.01042 8.10938 6C7.95833 5.98438 7.79427 5.97656 7.61719 5.97656C7.11198 5.97656 6.70833 6.08854 6.40625 6.3125C6.10417 6.53125 5.88542 6.8151 5.75 7.16406C5.61979 7.50781 5.55469 7.86979 5.55469 8.25ZM20.4688 4.10156C21.4531 4.10156 22.2474 4.48438 22.8516 5.25C23.4609 6.01562 23.7656 7.13802 23.7656 8.61719C23.7656 9.60677 23.6224 10.4401 23.3359 11.1172C23.0495 11.7891 22.6536 12.2969 22.1484 12.6406C21.6432 12.9844 21.0625 13.1562 20.4062 13.1562C19.9844 13.1562 19.6224 13.1042 19.3203 13C19.0182 12.8906 18.7604 12.7526 18.5469 12.5859C18.3333 12.4141 18.1484 12.2318 17.9922 12.0391H17.8672C17.9089 12.2474 17.9401 12.4609 17.9609 12.6797C17.9818 12.8984 17.9922 13.112 17.9922 13.3203V16.8438H15.6094V4.26562H17.5469L17.8828 5.39844H17.9922C18.1484 5.16406 18.3385 4.94792 18.5625 4.75C18.7865 4.55208 19.0547 4.39583 19.3672 4.28125C19.6849 4.16146 20.0521 4.10156 20.4688 4.10156ZM19.7031 6.00781C19.2865 6.00781 18.9557 6.09375 18.7109 6.26562C18.4661 6.4375 18.2865 6.69531 18.1719 7.03906C18.0625 7.38281 18.0026 7.81771 17.9922 8.34375V8.60156C17.9922 9.16406 18.0443 9.64062 18.1484 10.0312C18.2578 10.4219 18.4375 10.7188 18.6875 10.9219C18.9427 11.125 19.2917 11.2266 19.7344 11.2266C20.099 11.2266 20.3984 11.125 20.6328 10.9219C20.8672 10.7188 21.0417 10.4219 21.1562 10.0312C21.276 9.63542 21.3359 9.15365 21.3359 8.58594C21.3359 7.73177 21.2031 7.08854 20.9375 6.65625C20.6719 6.22396 20.2604 6.00781 19.7031 6.00781ZM29.3359 4.10156C30.1432 4.10156 30.8385 4.25781 31.4219 4.57031C32.0052 4.8776 32.4557 5.32552 32.7734 5.91406C33.0911 6.5026 33.25 7.22135 33.25 8.07031V9.22656H27.6172C27.6432 9.89844 27.8438 10.4271 28.2188 10.8125C28.599 11.1927 29.125 11.3828 29.7969 11.3828C30.3542 11.3828 30.8646 11.3255 31.3281 11.2109C31.7917 11.0964 32.2682 10.9245 32.7578 10.6953V12.5391C32.3255 12.7526 31.8724 12.9089 31.3984 13.0078C30.9297 13.1068 30.3594 13.1562 29.6875 13.1562C28.8125 13.1562 28.0365 12.9948 27.3594 12.6719C26.6875 12.349 26.1589 11.8568 25.7734 11.1953C25.3932 10.5339 25.2031 9.70052 25.2031 8.69531C25.2031 7.67448 25.375 6.82552 25.7188 6.14844C26.0677 5.46615 26.5521 4.95573 27.1719 4.61719C27.7917 4.27344 28.513 4.10156 29.3359 4.10156ZM29.3516 5.79688C28.888 5.79688 28.5026 5.94531 28.1953 6.24219C27.8932 6.53906 27.7188 7.00521 27.6719 7.64062H31.0156C31.0104 7.28646 30.9453 6.97135 30.8203 6.69531C30.7005 6.41927 30.5182 6.20052 30.2734 6.03906C30.0339 5.8776 29.7266 5.79688 29.3516 5.79688ZM38.7344 13.1562C37.8698 13.1562 37.1328 13 36.5234 12.6875C35.9141 12.3698 35.4505 11.8802 35.1328 11.2188C34.8151 10.5573 34.6562 9.71094 34.6562 8.67969C34.6562 7.61198 34.8359 6.74219 35.1953 6.07031C35.5599 5.39323 36.0625 4.89583 36.7031 4.57812C37.349 4.26042 38.0964 4.10156 38.9453 4.10156C39.5495 4.10156 40.0703 4.16146 40.5078 4.28125C40.9505 4.39583 41.3359 4.53385 41.6641 4.69531L40.9609 6.53906C40.5859 6.38802 40.237 6.26562 39.9141 6.17188C39.5911 6.07292 39.2682 6.02344 38.9453 6.02344C38.5286 6.02344 38.1823 6.1224 37.9062 6.32031C37.6302 6.51302 37.4245 6.80469 37.2891 7.19531C37.1536 7.58594 37.0859 8.07552 37.0859 8.66406C37.0859 9.24219 37.1589 9.72135 37.3047 10.1016C37.4505 10.4818 37.6615 10.7656 37.9375 10.9531C38.2135 11.1354 38.5495 11.2266 38.9453 11.2266C39.4401 11.2266 39.8802 11.1615 40.2656 11.0312C40.651 10.8958 41.026 10.7083 41.3906 10.4688V12.5078C41.026 12.737 40.6432 12.901 40.2422 13C39.8464 13.1042 39.3438 13.1562 38.7344 13.1562ZM51.4375 4.26562V13H49.6094L49.2891 11.8828H49.1641C48.9766 12.1797 48.7422 12.4219 48.4609 12.6094C48.1797 12.7969 47.8698 12.9349 47.5312 13.0234C47.1927 13.112 46.8411 13.1562 46.4766 13.1562C45.8516 13.1562 45.3073 13.0469 44.8438 12.8281C44.3802 12.6042 44.0182 12.2578 43.7578 11.7891C43.5026 11.3203 43.375 10.7109 43.375 9.96094V4.26562H45.7578V9.36719C45.7578 9.99219 45.8698 10.4635 46.0938 10.7812C46.3177 11.099 46.6745 11.2578 47.1641 11.2578C47.6484 11.2578 48.0286 11.1484 48.3047 10.9297C48.5807 10.7057 48.7734 10.3802 48.8828 9.95312C48.9974 9.52083 49.0547 8.99479 49.0547 8.375V4.26562H51.4375ZM56.3203 13H53.9375V0.84375H56.3203V13ZM61.2109 4.26562V13H58.8281V4.26562H61.2109ZM60.0234 0.84375C60.3776 0.84375 60.6823 0.927083 60.9375 1.09375C61.1927 1.25521 61.3203 1.5599 61.3203 2.00781C61.3203 2.45052 61.1927 2.75781 60.9375 2.92969C60.6823 3.09635 60.3776 3.17969 60.0234 3.17969C59.6641 3.17969 59.3568 3.09635 59.1016 2.92969C58.8516 2.75781 58.7266 2.45052 58.7266 2.00781C58.7266 1.5599 58.8516 1.25521 59.1016 1.09375C59.3568 0.927083 59.6641 0.84375 60.0234 0.84375ZM67.2969 4.08594C68.4688 4.08594 69.3672 4.34115 69.9922 4.85156C70.6172 5.36198 70.9297 6.13802 70.9297 7.17969V13H69.2656L68.8047 11.8125H68.7422C68.4922 12.125 68.237 12.3802 67.9766 12.5781C67.7161 12.776 67.4167 12.9219 67.0781 13.0156C66.7396 13.1094 66.3281 13.1562 65.8438 13.1562C65.3281 13.1562 64.8646 13.0573 64.4531 12.8594C64.0469 12.6615 63.7266 12.3594 63.4922 11.9531C63.2578 11.5417 63.1406 11.0208 63.1406 10.3906C63.1406 9.46354 63.4661 8.78125 64.1172 8.34375C64.7682 7.90104 65.7448 7.65625 67.0469 7.60938L68.5625 7.5625V7.17969C68.5625 6.72135 68.4427 6.38542 68.2031 6.17188C67.9635 5.95833 67.6302 5.85156 67.2031 5.85156C66.7812 5.85156 66.3672 5.91146 65.9609 6.03125C65.5547 6.15104 65.1484 6.30208 64.7422 6.48438L63.9531 4.875C64.4167 4.63021 64.9349 4.4375 65.5078 4.29688C66.0859 4.15625 66.6823 4.08594 67.2969 4.08594ZM68.5625 8.95312L67.6406 8.98438C66.8698 9.00521 66.3333 9.14323 66.0312 9.39844C65.7344 9.65365 65.5859 9.98958 65.5859 10.4062C65.5859 10.7708 65.6927 11.0312 65.9062 11.1875C66.1198 11.3385 66.3984 11.4141 66.7422 11.4141C67.2526 11.4141 67.6823 11.263 68.0312 10.9609C68.3854 10.6589 68.5625 10.2292 68.5625 9.67188V8.95312ZM78.2656 4.10156C78.3854 4.10156 78.5234 4.10938 78.6797 4.125C78.8411 4.13542 78.9714 4.15104 79.0703 4.17188L78.8906 6.40625C78.8125 6.38021 78.7005 6.36198 78.5547 6.35156C78.4141 6.33594 78.2917 6.32812 78.1875 6.32812C77.8802 6.32812 77.5807 6.36719 77.2891 6.44531C77.0026 6.52344 76.7448 6.65104 76.5156 6.82812C76.2865 7 76.1042 7.22917 75.9688 7.51562C75.8385 7.79688 75.7734 8.14323 75.7734 8.55469V13H73.3906V4.26562H75.1953L75.5469 5.73438H75.6641C75.8359 5.4375 76.0495 5.16667 76.3047 4.92188C76.5651 4.67188 76.8594 4.47396 77.1875 4.32812C77.5208 4.17708 77.8802 4.10156 78.2656 4.10156ZM85.9375 1.57812L81.6797 13H79.5156L83.7734 1.57812H85.9375ZM89.0547 8.53906L86.2422 4.26562H88.9453L90.6406 7.04688L92.3516 4.26562H95.0547L92.2109 8.53906L95.1875 13H92.4766L90.6406 10.0078L88.7969 13H86.0938L89.0547 8.53906ZM100.062 5.70312C100.76 5.70312 101.38 5.83594 101.922 6.10156C102.469 6.36719 102.898 6.75781 103.211 7.27344C103.523 7.78906 103.68 8.42448 103.68 9.17969C103.68 10.0026 103.508 10.7135 103.164 11.3125C102.826 11.9062 102.318 12.362 101.641 12.6797C100.969 12.9974 100.13 13.1562 99.125 13.1562C98.526 13.1562 97.9609 13.1042 97.4297 13C96.9036 12.901 96.4427 12.7474 96.0469 12.5391V10.4531C96.4427 10.6615 96.9167 10.8385 97.4688 10.9844C98.026 11.125 98.5495 11.1953 99.0391 11.1953C99.5182 11.1953 99.9219 11.1328 100.25 11.0078C100.578 10.8776 100.826 10.6797 100.992 10.4141C101.164 10.1432 101.25 9.79948 101.25 9.38281C101.25 8.82552 101.062 8.39844 100.688 8.10156C100.312 7.80469 99.737 7.65625 98.9609 7.65625C98.6641 7.65625 98.3542 7.6849 98.0312 7.74219C97.7135 7.79948 97.4479 7.85677 97.2344 7.91406L96.2734 7.39844L96.7031 1.57812H102.898V3.625H98.8203L98.6094 5.86719C98.7865 5.83073 98.9792 5.79427 99.1875 5.75781C99.3958 5.72135 99.6875 5.70312 100.062 5.70312ZM112.984 7.28906C112.984 8.21094 112.911 9.03385 112.766 9.75781C112.625 10.4818 112.396 11.0964 112.078 11.6016C111.766 12.1068 111.354 12.4922 110.844 12.7578C110.333 13.0234 109.714 13.1562 108.984 13.1562C108.068 13.1562 107.315 12.9245 106.727 12.4609C106.138 11.9922 105.703 11.3203 105.422 10.4453C105.141 9.5651 105 8.51302 105 7.28906C105 6.05469 105.128 5 105.383 4.125C105.643 3.24479 106.065 2.57031 106.648 2.10156C107.232 1.63281 108.01 1.39844 108.984 1.39844C109.896 1.39844 110.646 1.63281 111.234 2.10156C111.828 2.5651 112.268 3.23698 112.555 4.11719C112.841 4.99219 112.984 6.04948 112.984 7.28906ZM107.398 7.28906C107.398 8.15885 107.445 8.88542 107.539 9.46875C107.638 10.0469 107.802 10.4818 108.031 10.7734C108.26 11.0651 108.578 11.2109 108.984 11.2109C109.385 11.2109 109.701 11.0677 109.93 10.7812C110.164 10.4896 110.331 10.0547 110.43 9.47656C110.529 8.89323 110.578 8.16406 110.578 7.28906C110.578 6.41927 110.529 5.69271 110.43 5.10938C110.331 4.52604 110.164 4.08854 109.93 3.79688C109.701 3.5 109.385 3.35156 108.984 3.35156C108.578 3.35156 108.26 3.5 108.031 3.79688C107.802 4.08854 107.638 4.52604 107.539 5.10938C107.445 5.69271 107.398 6.41927 107.398 7.28906ZM122.156 6.45312C122.156 7.10938 122.107 7.76042 122.008 8.40625C121.914 9.05208 121.747 9.66146 121.508 10.2344C121.268 10.8021 120.932 11.3073 120.5 11.75C120.068 12.1875 119.518 12.5312 118.852 12.7812C118.185 13.0312 117.378 13.1562 116.43 13.1562C116.206 13.1562 115.943 13.1458 115.641 13.125C115.339 13.1094 115.089 13.0833 114.891 13.0469V11.1094C115.099 11.1615 115.32 11.2031 115.555 11.2344C115.789 11.2604 116.026 11.2734 116.266 11.2734C117.219 11.2734 117.953 11.1224 118.469 10.8203C118.99 10.5182 119.354 10.099 119.562 9.5625C119.776 9.02604 119.898 8.40625 119.93 7.70312H119.836C119.685 7.95312 119.505 8.17969 119.297 8.38281C119.094 8.58073 118.833 8.73958 118.516 8.85938C118.198 8.97396 117.794 9.03125 117.305 9.03125C116.654 9.03125 116.086 8.89062 115.602 8.60938C115.122 8.32292 114.75 7.91146 114.484 7.375C114.224 6.83333 114.094 6.17969 114.094 5.41406C114.094 4.58594 114.25 3.8776 114.562 3.28906C114.88 2.69531 115.331 2.23958 115.914 1.92188C116.497 1.60417 117.185 1.44531 117.977 1.44531C118.56 1.44531 119.104 1.54688 119.609 1.75C120.115 1.94792 120.557 2.2526 120.938 2.66406C121.323 3.07552 121.622 3.59635 121.836 4.22656C122.049 4.85677 122.156 5.59896 122.156 6.45312ZM118.023 3.38281C117.555 3.38281 117.172 3.54427 116.875 3.86719C116.578 4.1901 116.43 4.69531 116.43 5.38281C116.43 5.9349 116.557 6.3724 116.812 6.69531C117.068 7.01823 117.456 7.17969 117.977 7.17969C118.336 7.17969 118.648 7.10156 118.914 6.94531C119.18 6.78385 119.385 6.58333 119.531 6.34375C119.682 6.09896 119.758 5.84896 119.758 5.59375C119.758 5.32812 119.721 5.0651 119.648 4.80469C119.576 4.54427 119.466 4.30729 119.32 4.09375C119.174 3.88021 118.992 3.70833 118.773 3.57812C118.56 3.44792 118.31 3.38281 118.023 3.38281Z" fill="#fff"/>
</svg>
