<svg fill="none" xmlns="http://www.w3.org/2000/svg" viewBox="0 0 375 101">
  <path d="M359.71 38.044c0 5.142-1.349 9.674-4.049 13.595l-21.309 32.108h-12.727l15.427-22.659h-1.157c-7.006 0-12.759-2.121-17.259-6.364-4.435-4.306-6.653-9.866-6.653-16.68 0-6.813 2.218-12.341 6.653-16.584 4.5-4.307 10.253-6.46 17.259-6.46 7.071 0 12.792 2.153 17.163 6.46 4.435 4.242 6.652 9.77 6.652 16.584Zm-36.639 0c0 3.664 1.189 6.685 3.568 9.063 2.442 2.315 5.528 3.471 9.256 3.471 3.728 0 6.781-1.124 9.16-3.374 2.378-2.314 3.567-5.367 3.567-9.16 0-3.792-1.189-6.813-3.567-9.063-2.379-2.314-5.432-3.471-9.16-3.471-3.728 0-6.814 1.157-9.256 3.47-2.379 2.25-3.568 5.272-3.568 9.064ZM295.796 75.454C291.168 81.819 284.676 85 276.319 85c-8.292 0-14.816-3.182-19.572-9.546-4.629-6.363-6.943-14.848-6.943-25.454s2.314-19.09 6.943-25.454c4.756-6.364 11.28-9.546 19.572-9.546 8.357 0 14.849 3.182 19.477 9.546 4.692 6.299 7.039 14.784 7.039 25.454s-2.347 19.155-7.039 25.454Zm-19.477-1.253c5.014 0 8.839-2.089 11.474-6.267 2.636-4.178 3.953-10.156 3.953-17.934 0-7.778-1.317-13.756-3.953-17.934-2.635-4.178-6.46-6.267-11.474-6.267-4.949 0-8.774 2.089-11.473 6.267-2.636 4.178-3.953 10.156-3.953 17.934 0 7.778 1.317 13.756 3.953 17.934 2.699 4.178 6.524 6.267 11.473 6.267ZM210.051 41.708h8.485c6.428 0 11.86 1.928 16.295 5.785 4.435 3.793 6.653 9.064 6.653 15.813 0 6.75-2.282 12.052-6.846 15.909-4.5 3.857-10.092 5.785-16.777 5.785-5.464 0-10.22-1.253-14.27-3.76-4.049-2.507-6.942-6.075-8.678-10.703l9.546-5.496c1.864 6.107 6.331 9.16 13.402 9.16 3.793 0 6.814-.964 9.063-2.892 2.315-1.993 3.472-4.66 3.472-8.003 0-3.278-1.125-5.882-3.375-7.81-2.25-1.993-5.239-2.989-8.967-2.989h-19.669l2.603-36.253h37.603v10.413h-27.383l-1.157 15.041ZM170.179 59.063l18.03 24.684h-12.052l-11.956-16.488-12.052 16.488H140l18.127-24.78-17.163-23.43h12.053l11.088 15.234 11.088-15.234h12.149l-17.163 23.526Z" fill="#fff"/><path d="M85 20.37a10 10 0 0 1 5-8.65v-1.35H20a10 10 0 0 0 0 20h70V29a9.999 9.999 0 0 1-5-8.63Z" fill="#0ABCCC"/><path d="M85 80.37a10 10 0 0 1 5-8.65v-1.35H20a10 10 0 0 0 0 20h70V89a9.999 9.999 0 0 1-5-8.63Z" fill="#089BA8"/><path d="M95 40.37H25v1.35A10 10 0 0 1 25 59v1.35h70a10 10 0 1 0 0-20v.02Z" fill="#09A9B8"/>
</svg>